<svg width="60" height="64" viewBox="0 0 60 64" fill="none" xmlns="http://www.w3.org/2000/svg">
<path d="M9.45142 3.52051L9.45239 3.52148C9.45337 3.52201 9.4563 3.52325 9.45825 3.52441C9.4636 3.52779 9.47252 3.53399 9.48364 3.54102C9.5064 3.55537 9.54142 3.57768 9.58716 3.60645C9.67946 3.66448 9.81854 3.75087 9.99829 3.86328C10.3585 4.08853 10.8866 4.41821 11.552 4.8291C12.884 5.65165 14.7645 6.80227 16.9534 8.1084C21.3515 10.7327 26.9188 13.9408 31.7678 16.3984L32.6633 16.8447C37.2061 19.0638 42.6483 21.1325 47.1448 22.6982C49.5214 23.5258 51.5934 24.1997 53.0686 24.665C53.8054 24.8975 54.3929 25.0771 54.7922 25.1982C54.9916 25.2587 55.1452 25.3048 55.2463 25.335C55.296 25.3498 55.3335 25.361 55.3577 25.3682C55.3693 25.3716 55.3786 25.3744 55.384 25.376L55.3889 25.3779L60.0002 26.7305L57.2952 35.9502L52.6848 34.5986V34.5957L52.6838 34.5977L52.6799 34.5967C52.6775 34.596 52.674 34.5949 52.6702 34.5938C52.6615 34.5912 52.6484 34.5875 52.6331 34.583C52.6021 34.5738 52.5575 34.56 52.5002 34.543C52.385 34.5086 52.2168 34.4587 52.0022 34.3936C51.5724 34.2632 50.952 34.072 50.179 33.8281C48.6332 33.3405 46.4683 32.6383 43.9846 31.7734C40.5742 30.5858 36.4809 29.0644 32.5315 27.3525L17.4719 53.4385H47.7219V63.0479H0.829346L23.8831 23.1162C19.7464 20.8938 15.4879 18.4224 12.0305 16.3594C9.79165 15.0234 7.86768 13.8475 6.50317 13.0049C5.82083 12.5835 5.27673 12.2447 4.90259 12.0107C4.71565 11.8938 4.57067 11.8023 4.47192 11.7402L4.35962 11.6689L4.32056 11.6445L4.3186 11.6436V11.6426L0.256104 9.07617L5.38989 0.953125L9.45142 3.52051Z" fill="black"/>
</svg>
